<svg width="900" height="230" viewBox="0 0 900 230" fill="none" xmlns="http://www.w3.org/2000/svg">
<rect width="900" height="230" fill="url(#paint0_linear_25_85)"/>
<path d="M414.197 69.096V65.928H417.821C418.733 65.928 419.541 65.792 420.245 65.52C420.965 65.232 421.573 64.832 422.069 64.32C422.565 63.808 422.941 63.208 423.197 62.52C423.469 61.816 423.605 61.04 423.605 60.192C423.605 59.312 423.469 58.528 423.197 57.84C422.941 57.136 422.565 56.536 422.069 56.04C421.573 55.544 420.965 55.168 420.245 54.912C419.541 54.656 418.733 54.528 417.821 54.528H414.197V51.36H417.605C419.189 51.36 420.573 51.592 421.757 52.056C422.941 52.52 423.925 53.16 424.709 53.976C425.493 54.776 426.077 55.696 426.461 56.736C426.861 57.76 427.061 58.824 427.061 59.928V60.456C427.061 61.512 426.861 62.552 426.461 63.576C426.077 64.6 425.493 65.528 424.709 66.36C423.925 67.192 422.941 67.856 421.757 68.352C420.573 68.848 419.189 69.096 417.605 69.096H414.197ZM411.269 69.096V51.36H414.677V69.096H411.269ZM435.681 69.456C434.561 69.456 433.577 69.264 432.729 68.88C431.897 68.496 431.201 67.984 430.641 67.344C430.097 66.688 429.681 65.96 429.393 65.16C429.121 64.36 428.985 63.544 428.985 62.712V62.256C428.985 61.392 429.121 60.56 429.393 59.76C429.681 58.944 430.097 58.224 430.641 57.6C431.201 56.96 431.889 56.456 432.705 56.088C433.521 55.704 434.465 55.512 435.537 55.512C436.945 55.512 438.121 55.824 439.065 56.448C440.025 57.056 440.745 57.864 441.225 58.872C441.705 59.864 441.945 60.936 441.945 62.088V63.288H430.401V61.248H439.857L438.825 62.256C438.825 61.424 438.705 60.712 438.465 60.12C438.225 59.528 437.857 59.072 437.361 58.752C436.881 58.432 436.273 58.272 435.537 58.272C434.801 58.272 434.177 58.44 433.665 58.776C433.153 59.112 432.761 59.6 432.489 60.24C432.233 60.864 432.105 61.616 432.105 62.496C432.105 63.312 432.233 64.04 432.489 64.68C432.745 65.304 433.137 65.8 433.665 66.168C434.193 66.52 434.865 66.696 435.681 66.696C436.497 66.696 437.161 66.536 437.673 66.216C438.185 65.88 438.513 65.472 438.657 64.992H441.729C441.537 65.888 441.169 66.672 440.625 67.344C440.081 68.016 439.385 68.536 438.537 68.904C437.705 69.272 436.753 69.456 435.681 69.456ZM444.732 69V55.968H447.372V61.56H447.132C447.132 60.248 447.3 59.152 447.636 58.272C447.972 57.376 448.468 56.704 449.124 56.256C449.796 55.792 450.628 55.56 451.62 55.56H451.764C452.772 55.56 453.604 55.792 454.26 56.256C454.932 56.704 455.428 57.376 455.748 58.272C456.084 59.152 456.252 60.248 456.252 61.56H455.412C455.412 60.248 455.58 59.152 455.916 58.272C456.268 57.376 456.772 56.704 457.428 56.256C458.1 55.792 458.932 55.56 459.924 55.56H460.068C461.076 55.56 461.916 55.792 462.588 56.256C463.26 56.704 463.764 57.376 464.1 58.272C464.452 59.152 464.628 60.248 464.628 61.56V69H461.292V61.248C461.292 60.432 461.084 59.784 460.668 59.304C460.252 58.808 459.66 58.56 458.892 58.56C458.124 58.56 457.508 58.816 457.044 59.328C456.58 59.824 456.348 60.496 456.348 61.344V69H453.012V61.248C453.012 60.432 452.804 59.784 452.388 59.304C451.972 58.808 451.38 58.56 450.612 58.56C449.844 58.56 449.228 58.816 448.764 59.328C448.3 59.824 448.068 60.496 448.068 61.344V69H444.732ZM474.457 69.456C473.305 69.456 472.289 69.272 471.409 68.904C470.529 68.536 469.785 68.04 469.177 67.416C468.569 66.776 468.105 66.056 467.785 65.256C467.481 64.456 467.329 63.624 467.329 62.76V62.256C467.329 61.36 467.489 60.512 467.809 59.712C468.145 58.896 468.617 58.176 469.225 57.552C469.849 56.912 470.601 56.416 471.481 56.064C472.361 55.696 473.353 55.512 474.457 55.512C475.561 55.512 476.553 55.696 477.433 56.064C478.313 56.416 479.057 56.912 479.665 57.552C480.289 58.176 480.761 58.896 481.081 59.712C481.401 60.512 481.561 61.36 481.561 62.256V62.76C481.561 63.624 481.401 64.456 481.081 65.256C480.777 66.056 480.321 66.776 479.713 67.416C479.105 68.04 478.361 68.536 477.481 68.904C476.601 69.272 475.593 69.456 474.457 69.456ZM474.457 66.6C475.273 66.6 475.961 66.424 476.521 66.072C477.081 65.704 477.505 65.216 477.793 64.608C478.081 63.984 478.225 63.28 478.225 62.496C478.225 61.696 478.073 60.992 477.769 60.384C477.481 59.76 477.049 59.272 476.473 58.92C475.913 58.552 475.241 58.368 474.457 58.368C473.673 58.368 472.993 58.552 472.417 58.92C471.857 59.272 471.425 59.76 471.121 60.384C470.817 60.992 470.665 61.696 470.665 62.496C470.665 63.28 470.809 63.984 471.097 64.608C471.401 65.216 471.833 65.704 472.393 66.072C472.953 66.424 473.641 66.6 474.457 66.6ZM497.822 69.456C496.238 69.456 494.878 69.176 493.742 68.616C492.606 68.056 491.678 67.328 490.958 66.432C490.254 65.536 489.734 64.56 489.398 63.504C489.062 62.448 488.894 61.432 488.894 60.456V59.928C488.894 58.84 489.062 57.768 489.398 56.712C489.75 55.656 490.286 54.696 491.006 53.832C491.726 52.968 492.638 52.28 493.742 51.768C494.862 51.24 496.182 50.976 497.702 50.976C499.286 50.976 500.662 51.264 501.83 51.84C503.014 52.4 503.958 53.2 504.662 54.24C505.366 55.264 505.79 56.464 505.934 57.84H502.502C502.374 57.04 502.086 56.368 501.638 55.824C501.206 55.264 500.654 54.848 499.982 54.576C499.31 54.288 498.55 54.144 497.702 54.144C496.838 54.144 496.07 54.296 495.398 54.6C494.726 54.888 494.166 55.304 493.718 55.848C493.27 56.392 492.926 57.032 492.686 57.768C492.462 58.504 492.35 59.32 492.35 60.216C492.35 61.08 492.462 61.88 492.686 62.616C492.926 63.352 493.278 64 493.742 64.56C494.206 65.104 494.774 65.528 495.446 65.832C496.134 66.136 496.926 66.288 497.822 66.288C499.134 66.288 500.238 65.968 501.134 65.328C502.046 64.672 502.598 63.76 502.79 62.592H506.222C506.062 63.84 505.638 64.984 504.95 66.024C504.262 67.064 503.318 67.896 502.118 68.52C500.918 69.144 499.486 69.456 497.822 69.456ZM515.098 69.456C513.946 69.456 512.93 69.272 512.05 68.904C511.17 68.536 510.426 68.04 509.818 67.416C509.21 66.776 508.746 66.056 508.426 65.256C508.122 64.456 507.97 63.624 507.97 62.76V62.256C507.97 61.36 508.13 60.512 508.45 59.712C508.786 58.896 509.258 58.176 509.866 57.552C510.49 56.912 511.242 56.416 512.122 56.064C513.002 55.696 513.994 55.512 515.098 55.512C516.202 55.512 517.194 55.696 518.074 56.064C518.954 56.416 519.698 56.912 520.306 57.552C520.93 58.176 521.402 58.896 521.722 59.712C522.042 60.512 522.202 61.36 522.202 62.256V62.76C522.202 63.624 522.042 64.456 521.722 65.256C521.418 66.056 520.962 66.776 520.354 67.416C519.746 68.04 519.002 68.536 518.122 68.904C517.242 69.272 516.234 69.456 515.098 69.456ZM515.098 66.6C515.914 66.6 516.602 66.424 517.162 66.072C517.722 65.704 518.146 65.216 518.434 64.608C518.722 63.984 518.866 63.28 518.866 62.496C518.866 61.696 518.714 60.992 518.41 60.384C518.122 59.76 517.69 59.272 517.114 58.92C516.554 58.552 515.882 58.368 515.098 58.368C514.314 58.368 513.634 58.552 513.058 58.92C512.498 59.272 512.066 59.76 511.762 60.384C511.458 60.992 511.306 61.696 511.306 62.496C511.306 63.28 511.45 63.984 511.738 64.608C512.042 65.216 512.474 65.704 513.034 66.072C513.594 66.424 514.282 66.6 515.098 66.6ZM530.523 69.432C529.611 69.432 528.771 69.264 528.003 68.928C527.235 68.592 526.571 68.12 526.011 67.512C525.451 66.904 525.019 66.2 524.715 65.4C524.411 64.584 524.259 63.704 524.259 62.76V62.256C524.259 61.328 524.403 60.456 524.691 59.64C524.995 58.824 525.411 58.112 525.939 57.504C526.483 56.896 527.131 56.424 527.883 56.088C528.651 55.736 529.499 55.56 530.427 55.56C531.451 55.56 532.347 55.784 533.115 56.232C533.899 56.664 534.523 57.32 534.987 58.2C535.451 59.08 535.707 60.184 535.755 61.512L534.771 60.36V51.48H538.107V69H535.467V63.456H536.043C535.995 64.784 535.723 65.896 535.227 66.792C534.731 67.672 534.075 68.336 533.259 68.784C532.459 69.216 531.547 69.432 530.523 69.432ZM531.267 66.624C531.923 66.624 532.523 66.48 533.067 66.192C533.611 65.888 534.043 65.456 534.363 64.896C534.699 64.32 534.867 63.648 534.867 62.88V61.92C534.867 61.152 534.699 60.512 534.363 60C534.027 59.472 533.587 59.072 533.043 58.8C532.499 58.512 531.907 58.368 531.267 58.368C530.547 58.368 529.907 58.544 529.347 58.896C528.803 59.232 528.371 59.712 528.051 60.336C527.747 60.96 527.595 61.688 527.595 62.52C527.595 63.352 527.755 64.08 528.075 64.704C528.395 65.312 528.827 65.784 529.371 66.12C529.931 66.456 530.563 66.624 531.267 66.624ZM547.736 69.456C546.616 69.456 545.632 69.264 544.784 68.88C543.952 68.496 543.256 67.984 542.696 67.344C542.152 66.688 541.736 65.96 541.448 65.16C541.176 64.36 541.04 63.544 541.04 62.712V62.256C541.04 61.392 541.176 60.56 541.448 59.76C541.736 58.944 542.152 58.224 542.696 57.6C543.256 56.96 543.944 56.456 544.76 56.088C545.576 55.704 546.52 55.512 547.592 55.512C549 55.512 550.176 55.824 551.12 56.448C552.08 57.056 552.8 57.864 553.28 58.872C553.76 59.864 554 60.936 554 62.088V63.288H542.456V61.248H551.912L550.88 62.256C550.88 61.424 550.76 60.712 550.52 60.12C550.28 59.528 549.912 59.072 549.416 58.752C548.936 58.432 548.328 58.272 547.592 58.272C546.856 58.272 546.232 58.44 545.72 58.776C545.208 59.112 544.816 59.6 544.544 60.24C544.288 60.864 544.16 61.616 544.16 62.496C544.16 63.312 544.288 64.04 544.544 64.68C544.8 65.304 545.192 65.8 545.72 66.168C546.248 66.52 546.92 66.696 547.736 66.696C548.552 66.696 549.216 66.536 549.728 66.216C550.24 65.88 550.568 65.472 550.712 64.992H553.784C553.592 65.888 553.224 66.672 552.68 67.344C552.136 68.016 551.44 68.536 550.592 68.904C549.76 69.272 548.808 69.456 547.736 69.456Z" fill="white"/>
<path d="M311.767 175.28V171.59H316.027C316.887 171.59 317.607 171.42 318.187 171.08C318.787 170.74 319.237 170.27 319.537 169.67C319.857 169.07 320.017 168.38 320.017 167.6C320.017 166.82 319.857 166.13 319.537 165.53C319.237 164.93 318.787 164.47 318.187 164.15C317.607 163.81 316.887 163.64 316.027 163.64H311.767V159.95H315.667C317.507 159.95 319.067 160.25 320.347 160.85C321.647 161.45 322.637 162.31 323.317 163.43C323.997 164.53 324.337 165.84 324.337 167.36V167.84C324.337 169.36 323.997 170.68 323.317 171.8C322.637 172.9 321.647 173.76 320.347 174.38C319.067 174.98 317.507 175.28 315.667 175.28H311.767ZM308.107 182V159.95H312.367V182H308.107ZM327.641 182V165.71H330.941V172.61H330.851C330.851 170.27 331.351 168.5 332.351 167.3C333.351 166.1 334.821 165.5 336.761 165.5H337.361V169.13H336.221C334.821 169.13 333.731 169.51 332.951 170.27C332.191 171.01 331.811 172.09 331.811 173.51V182H327.641ZM340.93 182V165.71H345.1V182H340.93ZM338.65 168.83V165.71H345.1V168.83H338.65ZM342.46 163.76C341.64 163.76 341.03 163.55 340.63 163.13C340.25 162.69 340.06 162.15 340.06 161.51C340.06 160.83 340.25 160.28 340.63 159.86C341.03 159.44 341.64 159.23 342.46 159.23C343.28 159.23 343.88 159.44 344.26 159.86C344.64 160.28 344.83 160.83 344.83 161.51C344.83 162.15 344.64 162.69 344.26 163.13C343.88 163.55 343.28 163.76 342.46 163.76ZM349.906 182V165.71H353.206V172.7H352.906C352.906 171.06 353.116 169.69 353.536 168.59C353.956 167.47 354.576 166.63 355.396 166.07C356.236 165.49 357.276 165.2 358.516 165.2H358.696C359.956 165.2 360.996 165.49 361.816 166.07C362.656 166.63 363.276 167.47 363.676 168.59C364.096 169.69 364.306 171.06 364.306 172.7H363.256C363.256 171.06 363.466 169.69 363.886 168.59C364.326 167.47 364.956 166.63 365.776 166.07C366.616 165.49 367.656 165.2 368.896 165.2H369.076C370.336 165.2 371.386 165.49 372.226 166.07C373.066 166.63 373.696 167.47 374.116 168.59C374.556 169.69 374.776 171.06 374.776 172.7V182H370.606V172.31C370.606 171.29 370.346 170.48 369.826 169.88C369.306 169.26 368.566 168.95 367.606 168.95C366.646 168.95 365.876 169.27 365.296 169.91C364.716 170.53 364.426 171.37 364.426 172.43V182H360.256V172.31C360.256 171.29 359.996 170.48 359.476 169.88C358.956 169.26 358.216 168.95 357.256 168.95C356.296 168.95 355.526 169.27 354.946 169.91C354.366 170.53 354.076 171.37 354.076 172.43V182H349.906ZM389.102 182V177.17H388.412V171.8C388.412 170.86 388.182 170.16 387.722 169.7C387.262 169.24 386.552 169.01 385.592 169.01C385.092 169.01 384.492 169.02 383.792 169.04C383.092 169.06 382.382 169.09 381.662 169.13C380.962 169.15 380.332 169.18 379.772 169.22V165.68C380.232 165.64 380.752 165.6 381.332 165.56C381.912 165.52 382.502 165.5 383.102 165.5C383.722 165.48 384.302 165.47 384.842 165.47C386.522 165.47 387.912 165.69 389.012 166.13C390.132 166.57 390.972 167.26 391.532 168.2C392.112 169.14 392.402 170.37 392.402 171.89V182H389.102ZM383.852 182.42C382.672 182.42 381.632 182.21 380.732 181.79C379.852 181.37 379.162 180.77 378.662 179.99C378.182 179.21 377.942 178.27 377.942 177.17C377.942 175.97 378.232 174.99 378.812 174.23C379.412 173.47 380.242 172.9 381.302 172.52C382.382 172.14 383.642 171.95 385.082 171.95H388.862V174.44H385.022C384.062 174.44 383.322 174.68 382.802 175.16C382.302 175.62 382.052 176.22 382.052 176.96C382.052 177.7 382.302 178.3 382.802 178.76C383.322 179.22 384.062 179.45 385.022 179.45C385.602 179.45 386.132 179.35 386.612 179.15C387.112 178.93 387.522 178.57 387.842 178.07C388.182 177.55 388.372 176.85 388.412 175.97L389.432 177.14C389.332 178.28 389.052 179.24 388.592 180.02C388.152 180.8 387.532 181.4 386.732 181.82C385.952 182.22 384.992 182.42 383.852 182.42ZM396.869 182V165.71H400.169V172.61H400.079C400.079 170.27 400.579 168.5 401.579 167.3C402.579 166.1 404.049 165.5 405.989 165.5H406.589V169.13H405.449C404.049 169.13 402.959 169.51 402.179 170.27C401.419 171.01 401.039 172.09 401.039 173.51V182H396.869ZM409.397 188.42V184.85H412.457C413.037 184.85 413.517 184.77 413.897 184.61C414.297 184.47 414.627 184.23 414.887 183.89C415.147 183.57 415.347 183.12 415.487 182.54L419.867 165.71H423.857L419.027 183.44C418.707 184.66 418.257 185.63 417.677 186.35C417.097 187.09 416.347 187.62 415.427 187.94C414.527 188.26 413.407 188.42 412.067 188.42H409.397ZM414.467 181.64V178.34H417.947V181.64H414.467ZM413.057 181.64L407.777 165.71H411.977L416.987 181.64H413.057ZM433.197 182V165.71H436.497V172.7H436.197C436.197 171.04 436.417 169.66 436.857 168.56C437.297 167.44 437.947 166.6 438.807 166.04C439.687 165.48 440.777 165.2 442.077 165.2H442.257C444.197 165.2 445.667 165.83 446.667 167.09C447.667 168.33 448.167 170.19 448.167 172.67V182H443.997V172.31C443.997 171.31 443.707 170.5 443.127 169.88C442.567 169.26 441.787 168.95 440.787 168.95C439.767 168.95 438.937 169.27 438.297 169.91C437.677 170.53 437.367 171.37 437.367 172.43V182H433.197ZM462.52 182V177.17H461.83V171.8C461.83 170.86 461.6 170.16 461.14 169.7C460.68 169.24 459.97 169.01 459.01 169.01C458.51 169.01 457.91 169.02 457.21 169.04C456.51 169.06 455.8 169.09 455.08 169.13C454.38 169.15 453.75 169.18 453.19 169.22V165.68C453.65 165.64 454.17 165.6 454.75 165.56C455.33 165.52 455.92 165.5 456.52 165.5C457.14 165.48 457.72 165.47 458.26 165.47C459.94 165.47 461.33 165.69 462.43 166.13C463.55 166.57 464.39 167.26 464.95 168.2C465.53 169.14 465.82 170.37 465.82 171.89V182H462.52ZM457.27 182.42C456.09 182.42 455.05 182.21 454.15 181.79C453.27 181.37 452.58 180.77 452.08 179.99C451.6 179.21 451.36 178.27 451.36 177.17C451.36 175.97 451.65 174.99 452.23 174.23C452.83 173.47 453.66 172.9 454.72 172.52C455.8 172.14 457.06 171.95 458.5 171.95H462.28V174.44H458.44C457.48 174.44 456.74 174.68 456.22 175.16C455.72 175.62 455.47 176.22 455.47 176.96C455.47 177.7 455.72 178.3 456.22 178.76C456.74 179.22 457.48 179.45 458.44 179.45C459.02 179.45 459.55 179.35 460.03 179.15C460.53 178.93 460.94 178.57 461.26 178.07C461.6 177.55 461.79 176.85 461.83 175.97L462.85 177.14C462.75 178.28 462.47 179.24 462.01 180.02C461.57 180.8 460.95 181.4 460.15 181.82C459.37 182.22 458.41 182.42 457.27 182.42ZM473.352 182L468.252 165.71H472.542L477.432 182H473.352ZM474.582 182V178.58H478.992V182H474.582ZM476.232 182L480.432 165.71H484.452L480.042 182H476.232ZM488.381 182V165.71H492.551V182H488.381ZM486.101 168.83V165.71H492.551V168.83H486.101ZM489.911 163.76C489.091 163.76 488.481 163.55 488.081 163.13C487.701 162.69 487.511 162.15 487.511 161.51C487.511 160.83 487.701 160.28 488.081 159.86C488.481 159.44 489.091 159.23 489.911 159.23C490.731 159.23 491.331 159.44 491.711 159.86C492.091 160.28 492.281 160.83 492.281 161.51C492.281 162.15 492.091 162.69 491.711 163.13C491.331 163.55 490.731 163.76 489.911 163.76ZM503.717 188.42C502.937 188.42 502.137 188.39 501.317 188.33C500.517 188.27 499.767 188.19 499.067 188.09V184.61C499.787 184.69 500.557 184.76 501.377 184.82C502.197 184.9 502.967 184.94 503.687 184.94C505.027 184.94 506.107 184.78 506.927 184.46C507.767 184.14 508.377 183.63 508.757 182.93C509.157 182.25 509.357 181.38 509.357 180.32V177.11L510.257 175.07C510.197 176.57 509.887 177.85 509.327 178.91C508.767 179.95 508.007 180.75 507.047 181.31C506.087 181.85 504.977 182.12 503.717 182.12C502.597 182.12 501.577 181.91 500.657 181.49C499.757 181.07 498.977 180.49 498.317 179.75C497.677 179.01 497.177 178.14 496.817 177.14C496.457 176.14 496.277 175.07 496.277 173.93V173.3C496.277 172.16 496.457 171.1 496.817 170.12C497.197 169.12 497.727 168.25 498.407 167.51C499.087 166.77 499.897 166.2 500.837 165.8C501.777 165.4 502.817 165.2 503.957 165.2C505.297 165.2 506.457 165.49 507.437 166.07C508.437 166.65 509.217 167.49 509.777 168.59C510.337 169.69 510.647 171.04 510.707 172.64L509.987 172.76V165.71H513.287V180.08C513.287 182.06 512.947 183.66 512.267 184.88C511.587 186.1 510.537 186.99 509.117 187.55C507.717 188.13 505.917 188.42 503.717 188.42ZM504.917 178.55C505.717 178.55 506.447 178.37 507.107 178.01C507.767 177.65 508.297 177.13 508.697 176.45C509.097 175.77 509.297 174.95 509.297 173.99V172.94C509.297 172.02 509.087 171.24 508.667 170.6C508.267 169.96 507.737 169.48 507.077 169.16C506.417 168.82 505.697 168.65 504.917 168.65C504.037 168.65 503.257 168.86 502.577 169.28C501.917 169.68 501.397 170.25 501.017 170.99C500.637 171.73 500.447 172.61 500.447 173.63C500.447 174.63 500.637 175.5 501.017 176.24C501.397 176.98 501.917 177.55 502.577 177.95C503.257 178.35 504.037 178.55 504.917 178.55ZM527.706 182V177.17H527.016V171.8C527.016 170.86 526.786 170.16 526.326 169.7C525.866 169.24 525.156 169.01 524.196 169.01C523.696 169.01 523.096 169.02 522.396 169.04C521.696 169.06 520.986 169.09 520.266 169.13C519.566 169.15 518.936 169.18 518.376 169.22V165.68C518.836 165.64 519.356 165.6 519.936 165.56C520.516 165.52 521.106 165.5 521.706 165.5C522.326 165.48 522.906 165.47 523.446 165.47C525.126 165.47 526.516 165.69 527.616 166.13C528.736 166.57 529.576 167.26 530.136 168.2C530.716 169.14 531.006 170.37 531.006 171.89V182H527.706ZM522.456 182.42C521.276 182.42 520.236 182.21 519.336 181.79C518.456 181.37 517.766 180.77 517.266 179.99C516.786 179.21 516.546 178.27 516.546 177.17C516.546 175.97 516.836 174.99 517.416 174.23C518.016 173.47 518.846 172.9 519.906 172.52C520.986 172.14 522.246 171.95 523.686 171.95H527.466V174.44H523.626C522.666 174.44 521.926 174.68 521.406 175.16C520.906 175.62 520.656 176.22 520.656 176.96C520.656 177.7 520.906 178.3 521.406 178.76C521.926 179.22 522.666 179.45 523.626 179.45C524.206 179.45 524.736 179.35 525.216 179.15C525.716 178.93 526.126 178.57 526.446 178.07C526.786 177.55 526.976 176.85 527.016 175.97L528.036 177.14C527.936 178.28 527.656 179.24 527.196 180.02C526.756 180.8 526.136 181.4 525.336 181.82C524.556 182.22 523.596 182.42 522.456 182.42ZM542.553 182.21C541.053 182.21 539.813 182.02 538.833 181.64C537.873 181.24 537.153 180.58 536.673 179.66C536.193 178.72 535.953 177.46 535.953 175.88L535.983 161.12H539.883L539.853 176.15C539.853 176.95 540.063 177.57 540.483 178.01C540.923 178.43 541.543 178.64 542.343 178.64H544.893V182.21H542.553ZM533.373 168.77V165.71H544.893V168.77H533.373ZM549.172 182V165.71H553.342V182H549.172ZM546.892 168.83V165.71H553.342V168.83H546.892ZM550.702 163.76C549.882 163.76 549.272 163.55 548.872 163.13C548.492 162.69 548.302 162.15 548.302 161.51C548.302 160.83 548.492 160.28 548.872 159.86C549.272 159.44 549.882 159.23 550.702 159.23C551.522 159.23 552.122 159.44 552.502 159.86C552.882 160.28 553.072 160.83 553.072 161.51C553.072 162.15 552.882 162.69 552.502 163.13C552.122 163.55 551.522 163.76 550.702 163.76ZM565.978 182.57C564.538 182.57 563.268 182.34 562.168 181.88C561.068 181.42 560.138 180.8 559.378 180.02C558.618 179.22 558.038 178.32 557.638 177.32C557.258 176.32 557.068 175.28 557.068 174.2V173.57C557.068 172.45 557.268 171.39 557.668 170.39C558.088 169.37 558.678 168.47 559.438 167.69C560.218 166.89 561.158 166.27 562.258 165.83C563.358 165.37 564.598 165.14 565.978 165.14C567.358 165.14 568.598 165.37 569.698 165.83C570.798 166.27 571.728 166.89 572.488 167.69C573.268 168.47 573.858 169.37 574.258 170.39C574.658 171.39 574.858 172.45 574.858 173.57V174.2C574.858 175.28 574.658 176.32 574.258 177.32C573.878 178.32 573.308 179.22 572.548 180.02C571.788 180.8 570.858 181.42 569.758 181.88C568.658 182.34 567.398 182.57 565.978 182.57ZM565.978 179C566.998 179 567.858 178.78 568.558 178.34C569.258 177.88 569.788 177.27 570.148 176.51C570.508 175.73 570.688 174.85 570.688 173.87C570.688 172.87 570.498 171.99 570.118 171.23C569.758 170.45 569.218 169.84 568.498 169.4C567.798 168.94 566.958 168.71 565.978 168.71C564.998 168.71 564.148 168.94 563.428 169.4C562.728 169.84 562.188 170.45 561.808 171.23C561.428 171.99 561.238 172.87 561.238 173.87C561.238 174.85 561.418 175.73 561.778 176.51C562.158 177.27 562.698 177.88 563.398 178.34C564.098 178.78 564.958 179 565.978 179ZM578.51 182V165.71H581.81V172.7H581.51C581.51 171.04 581.73 169.66 582.17 168.56C582.61 167.44 583.26 166.6 584.12 166.04C585 165.48 586.09 165.2 587.39 165.2H587.57C589.51 165.2 590.98 165.83 591.98 167.09C592.98 168.33 593.48 170.19 593.48 172.67V182H589.31V172.31C589.31 171.31 589.02 170.5 588.44 169.88C587.88 169.26 587.1 168.95 586.1 168.95C585.08 168.95 584.25 169.27 583.61 169.91C582.99 170.53 582.68 171.37 582.68 172.43V182H578.51Z" fill="white"/>
<path d="M327.248 144V139.8C327.248 138.88 327.388 138.08 327.668 137.4C327.968 136.72 328.448 136.12 329.108 135.6C329.788 135.06 330.678 134.55 331.778 134.07L335.498 132.42C336.418 132 337.118 131.49 337.598 130.89C338.098 130.27 338.348 129.48 338.348 128.52C338.348 127.46 338.028 126.62 337.388 126C336.768 125.36 335.878 125.04 334.718 125.04C333.558 125.04 332.658 125.36 332.018 126C331.398 126.64 331.088 127.53 331.088 128.67H326.978C326.978 127.31 327.268 126.09 327.848 125.01C328.428 123.91 329.288 123.05 330.428 122.43C331.568 121.79 332.998 121.47 334.718 121.47C336.438 121.47 337.868 121.78 339.008 122.4C340.148 123.02 341.008 123.85 341.588 124.89C342.168 125.91 342.458 127.05 342.458 128.31V128.7C342.458 130.34 341.998 131.71 341.078 132.81C340.158 133.89 338.808 134.83 337.028 135.63L333.308 137.28C332.608 137.58 332.118 137.9 331.838 138.24C331.558 138.56 331.418 139 331.418 139.56V141.48L330.398 140.37H342.548V144H327.248ZM355.476 144.57C353.756 144.57 352.296 144.29 351.096 143.73C349.896 143.15 348.916 142.37 348.156 141.39C347.396 140.39 346.836 139.25 346.476 137.97C346.136 136.67 345.966 135.31 345.966 133.89V132.21C345.966 130.19 346.306 128.37 346.986 126.75C347.666 125.13 348.706 123.85 350.106 122.91C351.506 121.95 353.296 121.47 355.476 121.47C357.636 121.47 359.416 121.95 360.816 122.91C362.216 123.85 363.246 125.13 363.906 126.75C364.586 128.37 364.926 130.19 364.926 132.21V133.89C364.926 135.31 364.746 136.67 364.386 137.97C364.046 139.25 363.496 140.39 362.736 141.39C361.996 142.37 361.026 143.15 359.826 143.73C358.626 144.29 357.176 144.57 355.476 144.57ZM355.476 140.67C357.256 140.67 358.566 140.06 359.406 138.84C360.246 137.6 360.666 135.68 360.666 133.08C360.666 130.32 360.236 128.35 359.376 127.17C358.516 125.97 357.216 125.37 355.476 125.37C353.716 125.37 352.396 125.97 351.516 127.17C350.656 128.35 350.226 130.3 350.226 133.02C350.226 135.64 350.656 137.57 351.516 138.81C352.376 140.05 353.696 140.67 355.476 140.67ZM368.732 144V139.8C368.732 138.88 368.872 138.08 369.152 137.4C369.452 136.72 369.932 136.12 370.592 135.6C371.272 135.06 372.162 134.55 373.262 134.07L376.982 132.42C377.902 132 378.602 131.49 379.082 130.89C379.582 130.27 379.832 129.48 379.832 128.52C379.832 127.46 379.512 126.62 378.872 126C378.252 125.36 377.362 125.04 376.202 125.04C375.042 125.04 374.142 125.36 373.502 126C372.882 126.64 372.572 127.53 372.572 128.67H368.462C368.462 127.31 368.752 126.09 369.332 125.01C369.912 123.91 370.772 123.05 371.912 122.43C373.052 121.79 374.482 121.47 376.202 121.47C377.922 121.47 379.352 121.78 380.492 122.4C381.632 123.02 382.492 123.85 383.072 124.89C383.652 125.91 383.942 127.05 383.942 128.31V128.7C383.942 130.34 383.482 131.71 382.562 132.81C381.642 133.89 380.292 134.83 378.512 135.63L374.792 137.28C374.092 137.58 373.602 137.9 373.322 138.24C373.042 138.56 372.902 139 372.902 139.56V141.48L371.882 140.37H384.032V144H368.732ZM386.731 139.47V134.85L395.311 121.5L398.521 123.69L390.961 135.51L391.321 136.11H404.761V139.47H386.731ZM398.191 144V128.31H402.121V144H398.191ZM424.169 144V139.17H423.479V133.8C423.479 132.86 423.249 132.16 422.789 131.7C422.329 131.24 421.619 131.01 420.659 131.01C420.159 131.01 419.559 131.02 418.859 131.04C418.159 131.06 417.449 131.09 416.729 131.13C416.029 131.15 415.399 131.18 414.839 131.22V127.68C415.299 127.64 415.819 127.6 416.399 127.56C416.979 127.52 417.569 127.5 418.169 127.5C418.789 127.48 419.369 127.47 419.909 127.47C421.589 127.47 422.979 127.69 424.079 128.13C425.199 128.57 426.039 129.26 426.599 130.2C427.179 131.14 427.469 132.37 427.469 133.89V144H424.169ZM418.919 144.42C417.739 144.42 416.699 144.21 415.799 143.79C414.919 143.37 414.229 142.77 413.729 141.99C413.249 141.21 413.009 140.27 413.009 139.17C413.009 137.97 413.299 136.99 413.879 136.23C414.479 135.47 415.309 134.9 416.369 134.52C417.449 134.14 418.709 133.95 420.149 133.95H423.929V136.44H420.089C419.129 136.44 418.389 136.68 417.869 137.16C417.369 137.62 417.119 138.22 417.119 138.96C417.119 139.7 417.369 140.3 417.869 140.76C418.389 141.22 419.129 141.45 420.089 141.45C420.669 141.45 421.199 141.35 421.679 141.15C422.179 140.93 422.589 140.57 422.909 140.07C423.249 139.55 423.439 138.85 423.479 137.97L424.499 139.14C424.399 140.28 424.119 141.24 423.659 142.02C423.219 142.8 422.599 143.4 421.799 143.82C421.019 144.22 420.059 144.42 418.919 144.42ZM431.935 150V127.71H435.235V134.73L434.725 134.7C434.805 133.04 435.145 131.65 435.745 130.53C436.365 129.41 437.185 128.58 438.205 128.04C439.225 127.48 440.365 127.2 441.625 127.2C442.785 127.2 443.825 127.41 444.745 127.83C445.685 128.25 446.485 128.84 447.145 129.6C447.825 130.36 448.345 131.25 448.705 132.27C449.065 133.27 449.245 134.35 449.245 135.51V136.14C449.245 137.32 449.065 138.42 448.705 139.44C448.365 140.44 447.855 141.33 447.175 142.11C446.515 142.87 445.715 143.47 444.775 143.91C443.835 144.33 442.785 144.54 441.625 144.54C440.405 144.54 439.285 144.29 438.265 143.79C437.265 143.27 436.455 142.48 435.835 141.42C435.215 140.34 434.865 138.95 434.785 137.25L436.105 139.26V150H431.935ZM440.575 141.03C441.475 141.03 442.255 140.81 442.915 140.37C443.595 139.93 444.125 139.32 444.505 138.54C444.885 137.74 445.075 136.84 445.075 135.84C445.075 134.8 444.885 133.9 444.505 133.14C444.125 132.38 443.595 131.79 442.915 131.37C442.255 130.93 441.475 130.71 440.575 130.71C439.755 130.71 438.995 130.89 438.295 131.25C437.615 131.61 437.055 132.14 436.615 132.84C436.195 133.54 435.985 134.38 435.985 135.36V136.56C435.985 137.5 436.205 138.3 436.645 138.96C437.085 139.62 437.655 140.13 438.355 140.49C439.055 140.85 439.795 141.03 440.575 141.03ZM452.912 150V127.71H456.212V134.73L455.702 134.7C455.782 133.04 456.122 131.65 456.722 130.53C457.342 129.41 458.162 128.58 459.182 128.04C460.202 127.48 461.342 127.2 462.602 127.2C463.762 127.2 464.802 127.41 465.722 127.83C466.662 128.25 467.462 128.84 468.122 129.6C468.802 130.36 469.322 131.25 469.682 132.27C470.042 133.27 470.222 134.35 470.222 135.51V136.14C470.222 137.32 470.042 138.42 469.682 139.44C469.342 140.44 468.832 141.33 468.152 142.11C467.492 142.87 466.692 143.47 465.752 143.91C464.812 144.33 463.762 144.54 462.602 144.54C461.382 144.54 460.262 144.29 459.242 143.79C458.242 143.27 457.432 142.48 456.812 141.42C456.192 140.34 455.842 138.95 455.762 137.25L457.082 139.26V150H452.912ZM461.552 141.03C462.452 141.03 463.232 140.81 463.892 140.37C464.572 139.93 465.102 139.32 465.482 138.54C465.862 137.74 466.052 136.84 466.052 135.84C466.052 134.8 465.862 133.9 465.482 133.14C465.102 132.38 464.572 131.79 463.892 131.37C463.232 130.93 462.452 130.71 461.552 130.71C460.732 130.71 459.972 130.89 459.272 131.25C458.592 131.61 458.032 132.14 457.592 132.84C457.172 133.54 456.962 134.38 456.962 135.36V136.56C456.962 137.5 457.182 138.3 457.622 138.96C458.062 139.62 458.632 140.13 459.332 140.49C460.032 140.85 460.772 141.03 461.552 141.03ZM474.099 144V122.1H478.269V144H474.099ZM472.059 125.22V122.1H478.269V125.22H472.059ZM490.319 144.57C488.919 144.57 487.689 144.33 486.629 143.85C485.589 143.37 484.719 142.73 484.019 141.93C483.339 141.11 482.819 140.2 482.459 139.2C482.119 138.2 481.949 137.18 481.949 136.14V135.57C481.949 134.49 482.119 133.45 482.459 132.45C482.819 131.43 483.339 130.53 484.019 129.75C484.719 128.95 485.579 128.32 486.599 127.86C487.619 127.38 488.799 127.14 490.139 127.14C491.899 127.14 493.369 127.53 494.549 128.31C495.749 129.07 496.649 130.08 497.249 131.34C497.849 132.58 498.149 133.92 498.149 135.36V136.86H483.719V134.31H495.539L494.249 135.57C494.249 134.53 494.099 133.64 493.799 132.9C493.499 132.16 493.039 131.59 492.419 131.19C491.819 130.79 491.059 130.59 490.139 130.59C489.219 130.59 488.439 130.8 487.799 131.22C487.159 131.64 486.669 132.25 486.329 133.05C486.009 133.83 485.849 134.77 485.849 135.87C485.849 136.89 486.009 137.8 486.329 138.6C486.649 139.38 487.139 140 487.799 140.46C488.459 140.9 489.299 141.12 490.319 141.12C491.339 141.12 492.169 140.92 492.809 140.52C493.449 140.1 493.859 139.59 494.039 138.99H497.879C497.639 140.11 497.179 141.09 496.499 141.93C495.819 142.77 494.949 143.42 493.889 143.88C492.849 144.34 491.659 144.57 490.319 144.57ZM500.709 144V139.2H505.389V144H500.709ZM516.304 144.57C514.884 144.57 513.654 144.33 512.614 143.85C511.594 143.37 510.734 142.73 510.034 141.93C509.354 141.13 508.844 140.23 508.504 139.23C508.164 138.23 507.994 137.21 507.994 136.17V135.6C507.994 134.5 508.164 133.45 508.504 132.45C508.864 131.43 509.394 130.53 510.094 129.75C510.794 128.95 511.654 128.32 512.674 127.86C513.714 127.38 514.914 127.14 516.274 127.14C517.694 127.14 518.964 127.42 520.084 127.98C521.204 128.52 522.094 129.28 522.754 130.26C523.434 131.24 523.814 132.38 523.894 133.68H519.844C519.744 132.84 519.384 132.14 518.764 131.58C518.164 131.02 517.334 130.74 516.274 130.74C515.354 130.74 514.584 130.96 513.964 131.4C513.364 131.84 512.914 132.45 512.614 133.23C512.314 133.99 512.164 134.87 512.164 135.87C512.164 136.83 512.304 137.7 512.584 138.48C512.884 139.26 513.334 139.87 513.934 140.31C514.554 140.75 515.344 140.97 516.304 140.97C517.024 140.97 517.644 140.84 518.164 140.58C518.684 140.32 519.094 139.96 519.394 139.5C519.714 139.04 519.914 138.52 519.994 137.94H524.044C523.964 139.26 523.574 140.42 522.874 141.42C522.194 142.4 521.284 143.17 520.144 143.73C519.024 144.29 517.744 144.57 516.304 144.57ZM535.215 144.57C533.775 144.57 532.505 144.34 531.405 143.88C530.305 143.42 529.375 142.8 528.615 142.02C527.855 141.22 527.275 140.32 526.875 139.32C526.495 138.32 526.305 137.28 526.305 136.2V135.57C526.305 134.45 526.505 133.39 526.905 132.39C527.325 131.37 527.915 130.47 528.675 129.69C529.455 128.89 530.395 128.27 531.495 127.83C532.595 127.37 533.835 127.14 535.215 127.14C536.595 127.14 537.835 127.37 538.935 127.83C540.035 128.27 540.965 128.89 541.725 129.69C542.505 130.47 543.095 131.37 543.495 132.39C543.895 133.39 544.095 134.45 544.095 135.57V136.2C544.095 137.28 543.895 138.32 543.495 139.32C543.115 140.32 542.545 141.22 541.785 142.02C541.025 142.8 540.095 143.42 538.995 143.88C537.895 144.34 536.635 144.57 535.215 144.57ZM535.215 141C536.235 141 537.095 140.78 537.795 140.34C538.495 139.88 539.025 139.27 539.385 138.51C539.745 137.73 539.925 136.85 539.925 135.87C539.925 134.87 539.735 133.99 539.355 133.23C538.995 132.45 538.455 131.84 537.735 131.4C537.035 130.94 536.195 130.71 535.215 130.71C534.235 130.71 533.385 130.94 532.665 131.4C531.965 131.84 531.425 132.45 531.045 133.23C530.665 133.99 530.475 134.87 530.475 135.87C530.475 136.85 530.655 137.73 531.015 138.51C531.395 139.27 531.935 139.88 532.635 140.34C533.335 140.78 534.195 141 535.215 141ZM547.746 144V127.71H551.046V134.7H550.746C550.746 133.06 550.956 131.69 551.376 130.59C551.796 129.47 552.416 128.63 553.236 128.07C554.076 127.49 555.116 127.2 556.356 127.2H556.536C557.796 127.2 558.836 127.49 559.656 128.07C560.496 128.63 561.116 129.47 561.516 130.59C561.936 131.69 562.146 133.06 562.146 134.7H561.096C561.096 133.06 561.306 131.69 561.726 130.59C562.166 129.47 562.796 128.63 563.616 128.07C564.456 127.49 565.496 127.2 566.736 127.2H566.916C568.176 127.2 569.226 127.49 570.066 128.07C570.906 128.63 571.536 129.47 571.956 130.59C572.396 131.69 572.616 133.06 572.616 134.7V144H568.446V134.31C568.446 133.29 568.186 132.48 567.666 131.88C567.146 131.26 566.406 130.95 565.446 130.95C564.486 130.95 563.716 131.27 563.136 131.91C562.556 132.53 562.266 133.37 562.266 134.43V144H558.096V134.31C558.096 133.29 557.836 132.48 557.316 131.88C556.796 131.26 556.056 130.95 555.096 130.95C554.136 130.95 553.366 131.27 552.786 131.91C552.206 132.53 551.916 133.37 551.916 134.43V144H547.746Z" fill="#00DCB3"/>
<path d="M364.134 60.0205V61.1484L355.813 57.8672L357.293 57.3105L364.134 60.0205ZM364.134 62.2764V63.4189L352.913 58.9805L354.363 58.4238L364.134 62.2764ZM364.134 64.5615V65.6895L350.13 60.1523L351.478 59.5518L364.134 64.5615ZM364.134 48.082V49.21L346.204 56.3145V55.1865L364.134 48.082ZM364.134 45.8115V46.9541L346.204 54.0439V52.916L364.134 45.8115ZM364.134 50.3525V51.4951L346.204 58.585V57.457L364.134 50.3525ZM364.134 52.623V53.751L347.625 60.2842L364.134 66.8174V67.9453L346.204 60.8555V59.7129L364.134 52.623ZM377.01 44.7568H378.094L371.297 71.8418H370.213L377.01 44.7568ZM374.812 44.7568H375.911L369.114 71.8418H368.03L374.812 44.7568ZM372.615 44.7568H373.714L366.932 71.8418H365.833L372.615 44.7568ZM379.896 61.1338V60.0059L396.404 53.4727L379.896 46.9395V45.8115L397.825 52.9014V54.0439L379.896 61.1338ZM379.896 63.4043V62.2617L397.825 55.1719V56.2998L379.896 63.4043ZM379.896 67.9453V66.8027L397.825 59.7129V60.8408L379.896 67.9453ZM379.896 65.6748V64.5469L397.825 57.4424V58.5703L379.896 65.6748ZM379.896 49.1953V48.0674L393.899 53.6045L392.552 54.2051L379.896 49.1953ZM379.896 51.4805V50.3379L391.116 54.7764L389.666 55.333L379.896 51.4805ZM379.896 53.7363V52.6084L388.216 55.8896L386.736 56.4463L379.896 53.7363Z" fill="#00DCB3"/>
<defs>
<linearGradient id="paint0_linear_25_85" x1="450" y1="230" x2="450" y2="0" gradientUnits="userSpaceOnUse">
<stop/>
<stop offset="1" stop-color="#212121"/>
</linearGradient>
</defs>
</svg>
